# xmcd
# Copyright (C) 1995-1998 Ti Kan
#
# Track frame offsets:
#       150
#       15926
#       36742
#       52824
#       67032
#       81143
#       106426
#
# Disc length: 2472 seconds
#
# Revision: 0
# Processed by: cddbd v1.5.2PL0 Copyright (c) Steve Scherf et al.
# Submitted via: CD-Import v1.0
#
DISCID=5409a607
DTITLE=Ruidos En El Techo - Galacción
DYEAR=06
DGENRE=
TTITLE0=Canción Puberta
TTITLE1=Be In My Dreams
TTITLE2=Imagen Mental
TTITLE3=Galacción
TTITLE4=Tapia
TTITLE5=Los Tristes
TTITLE6=Don Mónico
EXTD=
EXTT0=
EXTT1=
EXTT2=
EXTT3=
EXTT4=
EXTT5=
EXTT6=
PLAYORDER=
